<?xml version="1.0" encoding="iso-8859-1"?>
<!-- Generator: Adobe Illustrator 19.0.0, SVG Export Plug-In . SVG Version: 6.00 Build 0)  -->
<svg version="1.1" id="Layer_1" xmlns="http://www.w3.org/2000/svg" xmlns:xlink="http://www.w3.org/1999/xlink" x="0px" y="0px"
	 viewBox="0 0 512 512" style="enable-background:new 0 0 512 512;" xml:space="preserve">
<g transform="translate(1 1)">
	<g>
		<g>
			<path d="M506.054,313.027c-15.36-20.48-30.72-20.48-68.267-0.853L364.4,357.4c-10.24,5.973-33.28,7.68-54.613,7.68
				c4.267-7.68,2.56-17.067-5.12-28.16c-13.653-19.627-36.693-31.573-61.44-31.573h-33.28c-17.92,0-34.987-5.12-48.64-15.36
				c-30.791-23.093-78.94,2.035-102.4,17.023v-17.876H-0.826V511h59.733v-25.6H169.84c17.067,0,34.987-1.707,52.053-2.56
				l110.933-17.067c4.267,0,8.533-0.853,11.947-1.707c10.24-1.707,19.627-6.827,28.16-14.507l128.853-102.4
				C512.027,338.627,513.734,323.267,506.054,313.027z M41.84,493.933h-25.6V306.2h25.6V319v166.4V493.933z M491.547,336.067
				L361.84,436.76l-0.853,0.853c-5.973,5.12-11.947,8.533-18.773,9.387h-0.853c-3.413,0.853-5.973,0.853-9.387,0.853l-112.64,17.067
				c-16.213,2.56-33.28,3.413-49.493,3.413H58.907v-140.8c20.48-14.507,68.267-41.813,92.16-23.04
				c16.213,11.947,37.547,18.773,58.88,18.773h33.28c19.627,0,37.547,8.533,48.64,25.6c3.413,5.12,4.267,10.24,3.413,11.947
				c-2.56,4.267-12.8,5.973-23.893,6.827c-1.15,0-2.296,0-3.413,0c-2.2,0-4.275,0-5.973,0h-76.8
				c-26.453,0-42.667,12.8-42.667,34.133c0,5.12,3.413,8.533,8.533,8.533c5.12,0,8.533-3.413,8.533-8.533
				c0-4.267,0-17.067,25.6-17.067h75.947c1.769,0,3.962,0,6.827,0c1.282,0,2.684,0,4.267,0c0.853,0,2.56,0,4.267,0
				c40.107,0.853,77.653,0,97.28-10.24l73.387-45.227c35.84-17.92,39.253-13.653,46.08-3.413
				C494.96,328.387,494.96,333.507,491.547,336.067z"/>
			<path d="M65.734,268.653c1.707,1.707,4.267,3.413,6.827,3.413h365.227c3.413,0,5.973-1.707,6.827-4.267l30.72-42.667
				c1.707-2.56,2.56-5.973,0.853-8.533s-4.267-4.267-7.68-4.267h-17.263c-4.35-101.584-85.953-183.187-187.537-187.537v-8.729
				h17.067c5.12,0,8.533-3.413,8.533-8.533S285.894-1,280.774-1h-51.2c-5.12,0-8.533,3.413-8.533,8.533s3.413,8.533,8.533,8.533
				h17.067v8.729c-101.584,4.35-183.187,85.953-187.537,187.537H41.84c-3.413,0-6.827,2.56-7.68,5.12s-0.853,5.973,0.853,8.533
				L65.734,268.653z M255.174,41.667c96.427,0,174.933,75.947,179.2,170.667h-358.4C81.094,117.613,159.6,41.667,255.174,41.667z
				 M67.44,229.4h375.467h8.533L433.52,255H76.827l-17.92-25.6H67.44z"/>
			<path d="M255.174,58.733c-57.173,0-110.933,30.72-140.8,81.067c-1.707,4.267-0.853,9.387,3.413,11.947
				c1.707,0.853,2.56,0.853,4.267,0.853c3.413,0,5.973-1.707,7.68-4.267c25.6-44.373,74.24-72.533,125.44-72.533
				c5.12,0,8.533-3.413,8.533-8.533S260.294,58.733,255.174,58.733z"/>
		</g>
	</g>
</g>
<g>
</g>
<g>
</g>
<g>
</g>
<g>
</g>
<g>
</g>
<g>
</g>
<g>
</g>
<g>
</g>
<g>
</g>
<g>
</g>
<g>
</g>
<g>
</g>
<g>
</g>
<g>
</g>
<g>
</g>
</svg>
