<?xml version="1.0" encoding="iso-8859-1"?>
<!-- Generator: Adobe Illustrator 17.1.0, SVG Export Plug-In . SVG Version: 6.00 Build 0)  -->
<!DOCTYPE svg PUBLIC "-//W3C//DTD SVG 1.1//EN" "http://www.w3.org/Graphics/SVG/1.1/DTD/svg11.dtd">
<svg version="1.1" id="Capa_1" xmlns="http://www.w3.org/2000/svg" xmlns:xlink="http://www.w3.org/1999/xlink" x="0px" y="0px"
	 viewBox="0 0 195.75 195.75" style="enable-background:new 0 0 195.75 195.75;" xml:space="preserve">
<path stroke="cornsilk" fill="cornsilk" d="M193.25,167.504H2.5c-1.381,0-2.5-1.119-2.5-2.5v-10.528c0-1.381,1.119-2.5,2.5-2.5h0.355v-5.528c0-1.381,1.119-2.5,2.5-2.5
	h90.02v-3.455H17.072c-1.381,0-2.5-1.119-2.5-2.5c0-40.923,29.666-75.049,68.62-82.007c0.053-0.097,0.113-0.191,0.18-0.281
	l6.279-8.496c1.318-1.783,3.364-3.03,5.724-3.548v-2.282c-1.708-0.479-3.184-1.444-4.169-2.776l-4.709-6.371
	c-0.561-0.759-0.646-1.769-0.222-2.612c0.426-0.843,1.289-1.374,2.232-1.374h18.734c0.943,0,1.807,0.531,2.232,1.374
	c0.425,0.843,0.339,1.853-0.222,2.612l-4.708,6.37c-0.986,1.333-2.462,2.299-4.17,2.777v2.282c2.359,0.518,4.406,1.765,5.724,3.548
	l6.279,8.496c0.066,0.09,0.127,0.185,0.18,0.281c38.954,6.958,68.62,41.083,68.62,82.007c0,1.381-1.119,2.5-2.5,2.5h-78.303v3.455
	h90.02c1.381,0,2.5,1.119,2.5,2.5v5.528h0.355c1.381,0,2.5,1.119,2.5,2.5v10.528C195.75,166.385,194.631,167.504,193.25,167.504z
	 M5,162.504h185.75v-5.528H5V162.504z M7.855,151.976h180.039v-3.028H7.855V151.976z M97.875,135.493h78.264
	c-1.323-42.025-35.923-75.802-78.264-75.802s-76.94,33.777-78.264,75.802H97.875z M90.34,54.69h15.07l-3.333-4.51
	c-0.814-1.103-2.425-1.788-4.201-1.788h-0.001c-1.776,0-3.387,0.685-4.202,1.788L90.34,54.69z M93.464,33.246l1.763,2.384
	c0.495,0.67,1.511,1.087,2.649,1.087c1.137,0,2.151-0.417,2.648-1.088l1.762-2.383H93.464z M40.623,100.092
	c-0.413,0-0.831-0.102-1.217-0.317c-1.205-0.673-1.637-2.196-0.964-3.402c8.771-15.709,29.425-26.34,30.3-26.785
	c1.229-0.624,2.734-0.135,3.36,1.095c0.626,1.23,0.137,2.735-1.094,3.362c-0.201,0.103-20.181,10.399-28.201,24.766
	C42.351,99.63,41.499,100.092,40.623,100.092z"/>
<g>
</g>
<g>
</g>
<g>
</g>
<g>
</g>
<g>
</g>
<g>
</g>
<g>
</g>
<g>
</g>
<g>
</g>
<g>
</g>
<g>
</g>
<g>
</g>
<g>
</g>
<g>
</g>
<g>
</g>
</svg>
