<?xml version="1.0" encoding="utf-8"?>
<!-- Svg Vector Icons : http://www.onlinewebfonts.com/icon -->
<!DOCTYPE svg PUBLIC "-//W3C//DTD SVG 1.1//EN" "http://www.w3.org/Graphics/SVG/1.1/DTD/svg11.dtd">
<svg version="1.1" xmlns="http://www.w3.org/2000/svg" xmlns:xlink="http://www.w3.org/1999/xlink" x="0px" y="0px" viewBox="0 0 1000 1000" enable-background="new 0 0 1000 1000" xml:space="preserve">
<metadata> Svg Vector Icons : http://www.onlinewebfonts.com/icon </metadata>
<g><path d="M990,690.1c0,165.7-134.3,300-300,300c-94.6,0-178.8-43.9-233.8-112.2c-2.9-2.6-5.8-5-8.7-7.8c-2-1.9-220.8,0-220.8,0l-216.7,0l0-254.9V9.9L870,10c0,0,0.7,423.7,0,440.5C942.7,505.3,990,592.1,990,690.1z M690,446.3c-134.6,0-243.7,109.1-243.7,243.8c0,134.6,109.1,243.8,243.7,243.8c134.6,0,243.7-109.1,243.7-243.8C933.7,555.5,824.6,446.3,690,446.3z M807.3,70.5H72.7l-3.5,737.6c0,0,147.7-2.7,229.4-2.7c0,0-3.4,5,111.4,4.7c0.9,0,3.6,1.9,7.6,5.1C400,777.1,390,734.8,390,690.1c0-8.5,0.6-16.8,1.3-25l-1.3,5l-264.5-2.6v-79.6l281.9,2.2c10.5-29.7,25.5-57.1,44.2-81.6L430,530.1l-304.5,3.6v-79.5l384.5-4l-1.7,1.7c31.4-24,67.5-41.8,106.9-51.9H125.5v-79.6h624.2v75.8c20.9,4.2,41,10.8,60.2,19.1L807.3,70.5z M520.4,695.5l53-52.9l74.1,74.1l158.9-158.8l53,52.9L647.5,822.5L520.4,695.5z"/></g>
</svg>