<?xml version="1.0" encoding="iso-8859-1"?>
<!-- Generator: Adobe Illustrator 16.0.0, SVG Export Plug-In . SVG Version: 6.00 Build 0)  -->
<!DOCTYPE svg PUBLIC "-//W3C//DTD SVG 1.1//EN" "http://www.w3.org/Graphics/SVG/1.1/DTD/svg11.dtd">
<svg version="1.1" id="Capa_1" xmlns="http://www.w3.org/2000/svg" xmlns:xlink="http://www.w3.org/1999/xlink" x="0px" y="0px"
	 width="986px" height="986px" viewBox="0 0 986 986" style="enable-background:new 0 0 986 986;" xml:space="preserve">
<g>
	<path style="fill:white" d="M78.2,816.288c24.4,24.4,52.9,43.7,84.5,57.1c32.9,14,67.8,21.101,103.6,21.101H911c41.4,0,75-33.601,75-75
		c0-41.4-33.6-75-75-75H266.3c-30.9,0-60-12.2-82.1-34.2c-22.1-22.1-34.2-51.2-34.2-82.1v-97c0-30.9,12.2-60,34.2-82.101
		c22.1-22.1,51.2-34.2,82.1-34.2h284l-44.1,44.101c-29.3,29.3-29.3,76.8,0,106.1c14.6,14.601,33.8,22,53,22s38.399-7.3,53-22
		l172.8-172.9c29.3-29.3,29.3-76.8,0-106.1l-172.7-172.6c-29.3-29.301-76.8-29.301-106.1,0c-29.3,29.3-29.3,76.8,0,106.1l45.2,45.2
		H266.3c-35.8,0-70.7,7.1-103.6,21.1c-31.7,13.4-60.1,32.7-84.5,57.101c-24.4,24.399-43.7,52.8-57.1,84.5
		c-14,32.899-21.1,67.8-21.1,103.6v97c0,35.8,7.1,70.7,21.1,103.601C34.5,763.388,53.7,791.788,78.2,816.288z"/>
</g>

</svg>
