<svg xmlns="http://www.w3.org/2000/svg" xmlns:xlink="http://www.w3.org/1999/xlink" version="1.1" width="256" height="256" viewBox="0 0 256 256" xml:space="preserve">

<defs>
</defs>
<g style="stroke: none; stroke-width: 0; stroke-dasharray: none; stroke-linecap: butt; stroke-linejoin: miter; stroke-miterlimit: 10; fill: none; fill-rule: nonzero; opacity: 1;" transform="translate(1.4065934065934016 1.4065934065934016) scale(2.81 2.81)" >
	<path d="M 60.269 30.771 L 47.201 41.304 c -0.624 -0.367 -1.341 -0.593 -2.116 -0.593 c -2.318 0 -4.204 1.886 -4.204 4.204 c 0 1.794 1.135 3.318 2.721 3.921 v 23.038 c 0 0.819 0.664 1.484 1.484 1.484 s 1.483 -0.664 1.483 -1.484 V 48.836 c 1.585 -0.602 2.721 -2.126 2.721 -3.921 c 0 -0.457 -0.092 -0.889 -0.227 -1.301 l 13.07 -10.534 c 0.637 -0.514 0.738 -1.448 0.224 -2.086 C 61.84 30.357 60.907 30.256 60.269 30.771 z" style="stroke: none; stroke-width: 1; stroke-dasharray: none; stroke-linecap: butt; stroke-linejoin: miter; stroke-miterlimit: 10; fill: rgb(0,0,0); fill-rule: nonzero; opacity: 1;" transform=" matrix(1 0 0 1 0 0) " stroke-linecap="round" />
	<path d="M 45.084 -0.085 c -24.813 0 -45 20.187 -45 45 c 0 24.814 20.187 45.001 45 45.001 c 24.813 0 45 -20.187 45 -45.001 C 90.084 20.102 69.897 -0.085 45.084 -0.085 z M 45.084 86.949 c -23.177 0 -42.033 -18.856 -42.033 -42.034 c 0 -23.177 18.856 -42.033 42.033 -42.033 c 23.177 0 42.033 18.856 42.033 42.033 C 87.117 68.093 68.261 86.949 45.084 86.949 z" style="stroke: none; stroke-width: 1; stroke-dasharray: none; stroke-linecap: butt; stroke-linejoin: miter; stroke-miterlimit: 10; fill: rgb(0,0,0); fill-rule: nonzero; opacity: 1;" transform=" matrix(1 0 0 1 0 0) " stroke-linecap="round" />
</g>
</svg>