<?xml version="1.0" encoding="iso-8859-1"?>
<!-- Generator: Adobe Illustrator 19.0.0, SVG Export Plug-In . SVG Version: 6.00 Build 0)  -->
<svg version="1.1" id="Layer_1" xmlns="http://www.w3.org/2000/svg" xmlns:xlink="http://www.w3.org/1999/xlink" x="0px" y="0px"
	 viewBox="0 0 298.941 298.941" style="enable-background:new 0 0 298.941 298.941;" xml:space="preserve">
<g id="XMLID_1409_">
	<g>
		<g fill="white" stroke="white">
			<circle cx="191.205" cy="24.604" r="24.604"/>
			<path d="M196.385,176.034L196.385,176.034c-0.783-0.001-1.539-0.109-2.265-0.292v108.953c0,7.868,6.378,14.246,14.246,14.246
				c7.868,0,14.246-6.378,14.246-14.246V174.892c-1.322,0.727-2.838,1.143-4.451,1.143H196.385z"/>
			<path d="M251.066,85.006c-0.078-15.413-12.681-27.953-28.095-27.953c-7.061,0-52.74,0-59.324,0
				c-8.526,0-16.487,3.804-21.843,10.438l-21.307,26.39h-19.614c0.957-0.76,1.573-1.932,1.573-3.25v-2.941
				c13.083-2.226,22.147-7.043,22.147-12.628c0-0.335-0.042-0.667-0.116-0.995c-0.146-0.642-1.23-1.125-2.523-1.125H50.317
				c-1.288,0-2.374,0.482-2.522,1.123c-0.076,0.329-0.119,0.661-0.119,0.997c0,5.585,9.064,10.401,22.147,12.628v2.941
				c0,2.293,1.859,4.152,4.152,4.152h3.16c-4.305,1.782-7.336,6.021-7.336,10.97c0,6.557,5.315,11.872,11.872,11.872h44.499
				c3.588,0,6.984-1.622,9.237-4.414l22.676-28.085c0.208-0.257,0.556-0.356,0.867-0.246c0.311,0.11,0.52,0.406,0.52,0.736
				c0.001,21.824,0.005,198.001,0.005,199.08c0,7.868,6.378,14.246,14.246,14.246c7.868,0,14.246-6.378,14.246-14.246V170.823h0.097
				c-0.601-1.227-0.948-2.601-0.948-4.057V150.58c-8.312-1.707-14.984-8.546-16.066-17.434
				c-1.288-10.576,5.807-20.236,16.066-22.334v-2.557c0-4.703,3.522-8.66,8.193-9.205l21.778-2.541
				c1.806-0.21,3.628,0.115,5.264,0.945v-12.31c0-1.368,1.106-2.479,2.475-2.484c1.368-0.006,2.484,1.096,2.495,2.465
				c0.142,28.157,0.107,11.157,0.107,53.119l13.4-1.631c5.98-0.728,10.468-5.82,10.437-11.844
				C251.239,119.421,251.093,90.279,251.066,85.006z"/>
			<path d="M179.419,132.127c0.557,4.576,3.65,8.219,7.698,9.708v-22.279C182.056,121.41,178.74,126.547,179.419,132.127z"/>
			<path d="M220.324,166.767v-61.053c0-1.195-0.969-2.162-2.162-2.162c-0.083,0-0.167,0.005-0.25,0.014l-21.777,2.541
				c-1.089,0.127-1.911,1.05-1.911,2.147v58.512c0,1.194,0.968,2.162,2.162,2.162h21.776v0.001
				C219.356,168.929,220.324,167.961,220.324,166.767z"/>
			<path d="M97.712,49.305c-1.599,0-3.142,0.234-4.601,0.666c-0.579-5.905-5.558-10.52-11.615-10.52
				c-6.447,0-11.673,5.226-11.673,11.673c0,0.166,0.018,0.327,0.025,0.491c-7.187,0.579-12.919,6.3-13.505,13.485
				c7.287,0,50.652,0,57.574,0C113.693,56.339,106.526,49.305,97.712,49.305z"/>
		</g>
	</g>
</g>
<g>
</g>
<g>
</g>
<g>
</g>
<g>
</g>
<g>
</g>
<g>
</g>
<g>
</g>
<g>
</g>
<g>
</g>
<g>
</g>
<g>
</g>
<g>
</g>
<g>
</g>
<g>
</g>
<g>
</g>
</svg>
